name C:\Users\r0593348\3dpredictsim\Results\batch_windlass\Pog_s1_tmt_bCst_d00_k1500_WL20_ig24_act_TTC.mot
datacolumns 128
datarows 4
range 0.57696228 0.61158002
endheader
time	pelvis_tilt	pelvis_list	pelvis_rotation	pelvis_tx	pelvis_ty	pelvis_tz	hip_flexion_l	hip_adduction_l	hip_rotation_l	hip_flexion_r	hip_adduction_r	hip_rotation_r	knee_angle_l	knee_angle_r	ankle_angle_l	ankle_angle_r	subtalar_angle_l	subtalar_angle_r	tmt_angle_l	tmt_angle_r	mtp_angle_l	mtp_angle_r	lumbar_extension	lumbar_bending	lumbar_rotation	arm_flex_l	arm_add_l	arm_rot_l	arm_flex_r	arm_add_r	arm_rot_r	elbow_flex_l	elbow_flex_r	pro_sup_l	pro_sup_r	glut_med1_l/activation	glut_med2_l/activation	glut_med3_l/activation	glut_min1_l/activation	glut_min2_l/activation	glut_min3_l/activation	semimem_l/activation	semiten_l/activation	bifemlh_l/activation	bifemsh_l/activation	sar_l/activation	add_long_l/activation	add_brev_l/activation	add_mag1_l/activation	add_mag2_l/activation	add_mag3_l/activation	tfl_l/activation	pect_l/activation	grac_l/activation	glut_max1_l/activation	glut_max2_l/activation	glut_max3_l/activation	iliacus_l/activation	psoas_l/activation	quad_fem_l/activation	gem_l/activation	peri_l/activation	rect_fem_l/activation	vas_med_l/activation	vas_int_l/activation	vas_lat_l/activation	med_gas_l/activation	lat_gas_l/activation	soleus_l/activation	tib_post_l/activation	flex_dig_l/activation	flex_hal_l/activation	tib_ant_l/activation	per_brev_l/activation	per_long_l/activation	per_tert_l/activation	ext_dig_l/activation	ext_hal_l/activation	ercspn_l/activation	intobl_l/activation	extobl_l/activation	glut_med1_r/activation	glut_med2_r/activation	glut_med3_r/activation	glut_min1_r/activation	glut_min2_r/activation	glut_min3_r/activation	semimem_r/activation	semiten_r/activation	bifemlh_r/activation	bifemsh_r/activation	sar_r/activation	add_long_r/activation	add_brev_r/activation	add_mag1_r/activation	add_mag2_r/activation	add_mag3_r/activation	tfl_r/activation	pect_r/activation	grac_r/activation	glut_max1_r/activation	glut_max2_r/activation	glut_max3_r/activation	iliacus_r/activation	psoas_r/activation	quad_fem_r/activation	gem_r/activation	peri_r/activation	rect_fem_r/activation	vas_med_r/activation	vas_int_r/activation	vas_lat_r/activation	med_gas_r/activation	lat_gas_r/activation	soleus_r/activation	tib_post_r/activation	flex_dig_r/activation	flex_hal_r/activation	tib_ant_r/activation	per_brev_r/activation	per_long_r/activation	per_tert_r/activation	ext_dig_r/activation	ext_hal_r/activation	ercspn_r/activation	intobl_r/activation	extobl_r/activation	
          0.57696228	         -2.92867487	          1.05369391	         -7.40341601	          0.72120285	          0.85868930	          0.00144218	         33.10557457	          0.37480607	         -2.17898627	        -14.80680417	         -2.28677322	          7.37762752	        -21.48555379	        -17.65117197	          4.96484260	         -6.58566281	          6.65223808	         18.24014598	         -0.51516122	         -7.04059168	          2.17389013	         32.37806331	          0.64884949	          1.18946139	          2.35677185	        -15.21300143	        -13.58675268	          5.68148595	          2.11775712	        -13.47562752	         15.03089032	         21.53185560	         43.18828671	         86.51662706	         86.51662706	          0.05130960	          0.05208496	          0.05948236	          0.05062203	          0.05076817	          0.05192383	          0.06501613	          0.06077986	          0.15484837	          0.05968572	          0.05229328	          0.06331087	          0.11955554	          0.14825094	          0.15038034	          0.12057950	          0.05393747	          0.05427843	          0.06711350	          0.06044777	          0.09348715	          0.11234007	          0.07044239	          0.06879570	          0.16376808	          0.05038771	          0.05483188	          0.05145216	          0.09851085	          0.10848492	          0.09052971	          0.07100534	          0.07043112	          0.06531128	          0.05964506	          0.07063462	          0.07075749	          0.52684757	          0.26632543	          0.16963200	          0.11351656	          0.57125974	          0.22171412	          0.05004633	          0.11042723	          0.11830501	          0.15429168	          0.07348222	          0.05056797	          0.19672407	          0.13351731	          0.08333509	          0.05129947	          0.05011127	          0.05014584	          0.05005306	          0.07954094	          0.15709085	          0.10666288	          0.10446506	          0.05823729	          0.06012390	          0.16939898	          0.05267821	          0.05042143	          0.05508908	          0.05546930	          0.05886675	          0.26147530	          0.39475457	          0.05324156	          0.05291726	          0.05109700	          0.21566583	          0.06777343	          0.07379412	          0.06223739	          0.14635295	          0.20285225	          0.05000891	          0.13478464	          0.14332971	          0.15708326	          0.36378719	          0.44742440	          0.34164606	          0.46323646	          0.50027361	          0.26430845	          0.05001186	          0.05021302	          0.05005011	
          0.58850152	         -2.92021548	          1.00774429	         -7.52186855	          0.73953609	          0.85761460	          0.00110575	         32.53054901	          0.61048940	         -2.01699135	        -14.88015744	         -2.45544789	          7.15498030	        -21.26061045	        -19.06798304	          4.72641099	         -8.84651664	          6.28922876	         18.62189170	         -0.60476589	         -7.20311706	          2.53905604	         32.45813650	          0.87001273	          0.99032261	          2.43930164	        -16.38566170	        -13.56963356	          5.76255778	          1.78875830	        -13.50593767	         15.33402649	         21.33362540	         44.02659004	         86.51662706	         86.51662706	          0.06057362	          0.05107420	          0.05011825	          0.05959850	          0.05917321	          0.05093415	          0.05940407	          0.05103572	          0.13487935	          0.05012295	          0.05046578	          0.08488206	          0.14232962	          0.25390846	          0.20723620	          0.14518471	          0.05013432	          0.08000605	          0.05649541	          0.05096771	          0.14578690	          0.17064511	          0.05947894	          0.05779321	          0.13753118	          0.15857512	          0.18637019	          0.06318239	          0.19408457	          0.19175041	          0.16440611	          0.05955444	          0.05907530	          0.05477797	          0.05003076	          0.05930078	          0.05938861	          0.73223401	          0.24371543	          0.14231470	          0.49892939	          0.71321498	          0.47923373	          0.05004527	          0.09261879	          0.09922598	          0.12943615	          0.06174832	          0.05024688	          0.16503825	          0.11203892	          0.07045555	          0.05403010	          0.05824249	          0.05856326	          0.05918899	          0.06712784	          0.19508758	          0.29737985	          0.17346954	          0.06291556	          0.05082362	          0.14211437	          0.09046019	          0.09257538	          0.05198841	          0.05096358	          0.05057373	          0.21932252	          0.33112471	          0.11205912	          0.05638609	          0.07091124	          0.18088339	          0.05685985	          0.06190944	          0.05221232	          0.12274817	          0.17013757	          0.05000485	          0.11304969	          0.12024441	          0.13176489	          0.51876193	          0.37652624	          0.29871657	          0.68134176	          0.61237342	          0.32785156	          0.05597578	          0.05064896	          0.06829755	
          0.60004077	         -2.90507841	          0.97343882	         -7.60511016	          0.75791059	          0.85593975	          0.00077858	         31.88108572	          0.87146888	         -1.78746290	        -14.74334948	         -2.58700300	          6.93997366	        -21.77090006	        -20.99175553	          4.64704377	        -10.43156089	          5.89730086	         18.93046055	         -0.69908518	         -6.92138570	          2.86019146	         30.67667838	          1.08345990	          0.76327853	          2.50714566	        -17.48904745	        -13.57811713	          5.95813413	          1.42552348	        -13.55315194	         15.58333642	         21.03319258	         44.85693952	         86.51662706	         86.51662706	          0.16999662	          0.05009864	          0.20151003	          0.05008978	          0.05008997	          0.05019011	          0.05010885	          0.05009026	          0.11313987	          0.05006933	          0.05037312	          0.07127216	          0.11943343	          0.21649704	          0.22357536	          0.15741946	          0.05034732	          0.06945659	          0.08226718	          0.05147996	          0.16750617	          0.16726475	          0.05058154	          0.05141611	          0.24626458	          0.13306798	          0.15642737	          0.05960852	          0.29650804	          0.28569342	          0.24665719	          0.05000758	          0.05001395	          0.05000283	          0.05001430	          0.05012471	          0.05006754	          0.62970569	          0.20474245	          0.12105739	          0.59044294	          0.60065168	          0.40198539	          0.05001478	          0.07768267	          0.08322426	          0.10858770	          0.05974931	          0.06438067	          0.13846547	          0.09402689	          0.05994807	          0.05324782	          0.05026025	          0.06317564	          0.05005826	          0.05646325	          0.19586429	          0.34790675	          0.28560962	          0.14228683	          0.14343347	          0.11923342	          0.07658801	          0.07796459	          0.06205759	          0.06447444	          0.10329429	          0.18396237	          0.27777948	          0.10365684	          0.06598027	          0.05975137	          0.15171205	          0.07108851	          0.07110527	          0.05994240	          0.10295183	          0.14270205	          0.05047027	          0.09482156	          0.10088835	          0.11053325	          0.57912809	          0.34895974	          0.25157132	          0.57148254	          0.71907294	          0.27500101	          0.08933121	          0.05964232	          0.05772104	
          0.61158002	         -2.88485345	          0.94465381	         -7.65183169	          0.77623446	          0.85384387	          0.00046097	         31.04462674	          1.12717866	         -1.49753683	        -14.43466329	         -2.68525707	          6.75161801	        -22.52478389	        -23.34711014	          4.83702043	        -11.32301180	          5.48838276	         19.19005162	         -0.92281692	         -6.19967840	          2.93546155	         27.01762473	          1.28857491	          0.52298873	          2.56082000	        -18.49429216	        -13.60449045	          6.26671655	          1.04738384	        -13.61391737	         15.79789867	         20.61068500	         45.64597887	         86.51662706	         86.51662706	          0.31534422	          0.37347890	          0.52579117	          0.31740421	          0.25185629	          0.43332725	          0.06176601	          0.08362128	          0.09490762	          0.06163236	          0.05411302	          0.05980332	          0.10019188	          0.18163336	          0.18765236	          0.15788104	          0.05012321	          0.05909885	          0.07172653	          0.26188697	          0.23316655	          0.17539982	          0.05022633	          0.05012335	          0.20659419	          0.11180449	          0.31572193	          0.05001996	          0.35024458	          0.34675809	          0.30114952	          0.05002125	          0.05004112	          0.05000621	          0.13939402	          0.05045706	          0.05035567	          0.69702992	          0.17172535	          0.10153562	          0.49523975	          0.57494479	          0.44494641	          0.05602026	          0.06515898	          0.06980413	          0.17736410	          0.05016165	          0.05400935	          0.11652658	          0.07895458	          0.05039022	          0.06954406	          0.05088467	          0.05604560	          0.05015617	          0.05123648	          0.17289480	          0.29212815	          0.23972001	          0.11978427	          0.12050092	          0.10007929	          0.06603450	          0.06559336	          0.05287471	          0.05443556	          0.08671762	          0.15432462	          0.27063990	          0.08695456	          0.05543768	          0.05015978	          0.12724567	          0.05964141	          0.05965639	          0.05028755	          0.08634947	          0.11969371	          0.05581538	          0.07953485	          0.08465461	          0.09272958	          0.61626934	          0.29295359	          0.21103220	          0.55222036	          0.78076539	          0.58689538	          0.12177308	          0.05002835	          0.05003838	
